<?xml version="1.0" encoding="UTF-8"?>
<!DOCTYPE svg PUBLIC "-//W3C//DTD SVG 1.1//EN" "http://www.w3.org/Graphics/SVG/1.1/DTD/svg11.dtd">
<!-- Creator: CorelDRAW 2017 -->
<svg xmlns="http://www.w3.org/2000/svg" xml:space="preserve" width="2.54mm" height="2.54mm" version="1.1" style="shape-rendering:geometricPrecision; text-rendering:geometricPrecision; image-rendering:optimizeQuality; fill-rule:evenodd; clip-rule:evenodd"
viewBox="0 0 254 254"
 xmlns:xlink="http://www.w3.org/1999/xlink">
 <defs>
  <style type="text/css">
   <![CDATA[
    .str0 {stroke:#36364A;stroke-width:25.39;stroke-miterlimit:22.9256}
    .fil2 {fill:none}
    .fil0 {fill:#36364A}
    .fil1 {fill:#36364A;fill-rule:nonzero}
   ]]>
  </style>
 </defs>
 <g id="レイヤ_x0020_1">
  <metadata id="CorelCorpID_0Corel-Layer"/>
  <path class="fil0" d="M160.87 76.2l-101.6 0 0 -48.68 25.4 0c0.61,-12.5 10.74,-19.05 26.12,-19.05 15.38,0 24.08,6.56 24.67,19.05l25.25 -0.12 0.16 48.8zm-50.98 -54.87c5.76,0 10.44,4.27 10.44,9.53 0,5.25 -4.68,9.52 -10.44,9.52 -5.77,0 -10.44,-4.27 -10.44,-9.52 0,-5.26 4.67,-9.53 10.44,-9.53z"/>
  <g>
   <path class="fil1" d="M149.27 131.24l87.8 0.01 0 25.38 -87.8 -0.01 0 -25.38zm-56.14 12.69l59.24 -59.25 -0.01 118.47 -59.23 -59.22z"/>
  </g>
  <path class="fil2 str0" d="M169.33 46.57l22.63 0 0 70.89m0 54.32l0 61.05 -162.33 0 0 -186.26 22.04 0"/>
 </g>
</svg>
