<?xml version="1.0" encoding="UTF-8"?>
<!DOCTYPE svg PUBLIC "-//W3C//DTD SVG 1.1//EN" "http://www.w3.org/Graphics/SVG/1.1/DTD/svg11.dtd">
<!-- Creator: CorelDRAW 2017 -->
<svg xmlns="http://www.w3.org/2000/svg" xml:space="preserve" width="2.54mm" height="2.54mm" version="1.1" style="shape-rendering:geometricPrecision; text-rendering:geometricPrecision; image-rendering:optimizeQuality; fill-rule:evenodd; clip-rule:evenodd"
viewBox="0 0 254 254"
 xmlns:xlink="http://www.w3.org/1999/xlink">
 <defs>
  <style type="text/css">
   <![CDATA[
    .fil0 {fill:#36364A;fill-rule:nonzero}
   ]]>
  </style>
 </defs>
 <g id="レイヤ_x0020_1">
  <metadata id="CorelCorpID_0Corel-Layer"/>
  <path class="fil0" d="M138.04 176.45l-32.93 0c-0.09,-4.95 -0.14,-7.92 -0.14,-9.02 0,-11.08 1.76,-20.2 5.32,-27.39 3.51,-7.14 10.54,-15.2 21.13,-24.18 10.59,-8.93 16.91,-14.79 18.97,-17.58 3.21,-4.4 4.78,-9.26 4.78,-14.52 0,-7.28 -2.81,-13.56 -8.46,-18.73 -5.64,-5.22 -13.23,-7.83 -22.8,-7.83 -9.23,0 -16.91,2.74 -23.16,8.19 -6.19,5.5 -10.45,13.83 -12.77,25.05l-33.22 -4.39c0.97,-16.08 7.52,-29.68 19.68,-40.9 12.17,-11.22 28.16,-16.81 47.92,-16.81 20.82,0 37.39,5.68 49.69,16.99 12.29,11.32 18.45,24.46 18.45,39.53 0,8.29 -2.24,16.21 -6.77,23.63 -4.52,7.42 -14.14,17.54 -28.95,30.36 -7.64,6.6 -12.38,11.95 -14.23,15.98 -1.84,4.03 -2.68,11.22 -2.51,21.62zm-32.93 50.56l0 -37.64 32.93 0 0 37.64 -32.93 0z"/>
 </g>
</svg>
