<?xml version="1.0" encoding="UTF-8"?>
<!DOCTYPE svg PUBLIC "-//W3C//DTD SVG 1.1//EN" "http://www.w3.org/Graphics/SVG/1.1/DTD/svg11.dtd">
<!-- Creator: CorelDRAW 2017 -->
<svg xmlns="http://www.w3.org/2000/svg" xml:space="preserve" width="2.54mm" height="2.54mm" version="1.1" style="shape-rendering:geometricPrecision; text-rendering:geometricPrecision; image-rendering:optimizeQuality; fill-rule:evenodd; clip-rule:evenodd"
viewBox="0 0 254 254"
 xmlns:xlink="http://www.w3.org/1999/xlink">
 <defs>
  <style type="text/css">
   <![CDATA[
    .fil1 {fill:white}
    .fil0 {fill:url(#id0)}
   ]]>
  </style>
  <linearGradient id="id0" gradientUnits="userSpaceOnUse" x1="126.54" y1="27.76" x2="126.54" y2="224.47">
   <stop offset="0" style="stop-opacity:1; stop-color:#6364FF"/>
   <stop offset="44.6039" style="stop-opacity:1; stop-color:#6364FF"/>
   <stop offset="1" style="stop-opacity:1; stop-color:#563ACC"/>
  </linearGradient>
 </defs>
 <g id="レイヤ_x0020_1">
  <metadata id="CorelCorpID_0Corel-Layer"/>
  <path class="fil0" d="M219.37 71.7c-2.87,-21.32 -21.45,-38.13 -43.49,-41.39 -3.72,-0.55 -17.8,-2.55 -50.43,-2.55l-0.24 0c-32.63,0 -39.64,2 -43.35,2.55 -21.42,3.17 -40.99,18.27 -45.73,39.85 -2.28,10.63 -2.53,22.41 -2.1,33.21 0.6,15.5 0.72,30.97 2.13,46.41 0.97,10.25 2.67,20.42 5.08,30.44 4.51,18.49 22.77,33.88 40.66,40.16 19.16,6.55 39.76,7.63 59.5,3.14 2.17,-0.51 4.31,-1.09 6.43,-1.76 4.8,-1.53 10.42,-3.23 14.55,-6.23 0.06,-0.04 0.11,-0.09 0.14,-0.16 0.03,-0.06 0.05,-0.13 0.05,-0.2l0 -14.95c0,-0.07 -0.01,-0.14 -0.04,-0.19 -0.03,-0.06 -0.07,-0.12 -0.13,-0.16 -0.05,-0.04 -0.11,-0.06 -0.17,-0.08 -0.07,-0.01 -0.13,-0.01 -0.2,0 -12.64,3.02 -25.6,4.54 -38.61,4.51 -22.37,0 -28.39,-10.62 -30.11,-15.04 -1.39,-3.82 -2.27,-7.8 -2.62,-11.85 0,-0.07 0.01,-0.14 0.04,-0.2 0.02,-0.06 0.07,-0.11 0.12,-0.16 0.05,-0.04 0.11,-0.07 0.18,-0.09 0.07,-0.01 0.13,-0.01 0.2,0.01 12.44,3 25.18,4.51 37.98,4.51 3.07,0 6.14,0 9.22,-0.08 12.87,-0.36 26.43,-1.02 39.09,-3.49 0.31,-0.07 0.63,-0.12 0.9,-0.2 19.97,-3.84 38.97,-15.87 40.9,-46.34 0.07,-1.2 0.25,-12.57 0.25,-13.81 0.01,-4.24 1.36,-30.02 -0.2,-45.86z"/>
  <path class="fil1" d="M187.74 95.66l0 52.98 -21 0 0 -51.42c0,-10.82 -4.51,-16.34 -13.69,-16.34 -10.08,0 -15.14,6.53 -15.14,19.43l0 28.14 -20.87 0 0 -28.14c0,-12.9 -5.06,-19.43 -15.14,-19.43 -9.13,0 -13.68,5.52 -13.68,16.34l0 51.42 -20.99 0 0 -52.98c0,-10.82 2.76,-19.42 8.29,-25.8 5.7,-6.36 13.18,-9.62 22.47,-9.62 10.75,0 18.87,4.13 24.28,12.38l5.22 8.77 5.24 -8.77c5.41,-8.25 13.53,-12.38 24.26,-12.38 9.27,0 16.75,3.26 22.47,9.62 5.53,6.37 8.28,14.97 8.28,25.8z"/>
 </g>
</svg>
