<?xml version="1.0" encoding="UTF-8"?>
<!DOCTYPE svg PUBLIC "-//W3C//DTD SVG 1.1//EN" "http://www.w3.org/Graphics/SVG/1.1/DTD/svg11.dtd">
<!-- Creator: CorelDRAW 2017 -->
<svg xmlns="http://www.w3.org/2000/svg" xml:space="preserve" width="2.54mm" height="2.54mm" version="1.1" style="shape-rendering:geometricPrecision; text-rendering:geometricPrecision; image-rendering:optimizeQuality; fill-rule:evenodd; clip-rule:evenodd"
viewBox="0 0 254 254"
 xmlns:xlink="http://www.w3.org/1999/xlink">
 <defs>
  <style type="text/css">
   <![CDATA[
    .fil0 {fill:black}
   ]]>
  </style>
 </defs>
 <g id="レイヤ_x0020_1">
  <metadata id="CorelCorpID_0Corel-Layer"/>
  <path class="fil0" d="M219.38 71.42c-2.87,-21.1 -21.46,-37.72 -43.49,-40.94 -3.72,-0.55 -17.8,-2.53 -50.43,-2.53l-0.24 0c-32.63,0 -39.63,1.98 -43.35,2.53 -21.42,3.13 -40.98,18.07 -45.72,39.41 -2.29,10.51 -2.53,22.16 -2.11,32.85 0.61,15.33 0.73,30.63 2.13,45.9 0.98,10.14 2.67,20.2 5.08,30.1 4.51,18.3 22.77,33.52 40.67,39.73 19.15,6.47 39.75,7.55 59.49,3.1 2.17,-0.5 4.32,-1.08 6.44,-1.74 4.79,-1.51 10.41,-3.19 14.54,-6.15 0.06,-0.04 0.11,-0.1 0.14,-0.16 0.03,-0.06 0.05,-0.13 0.05,-0.2l0 -14.79c0,-0.07 -0.02,-0.13 -0.04,-0.19 -0.03,-0.06 -0.08,-0.11 -0.13,-0.15 -0.05,-0.04 -0.11,-0.07 -0.17,-0.08 -0.07,-0.02 -0.14,-0.02 -0.2,0 -12.64,2.98 -25.6,4.48 -38.61,4.46 -22.37,0 -28.39,-10.5 -30.11,-14.88 -1.39,-3.77 -2.27,-7.72 -2.62,-11.72 0,-0.07 0.01,-0.13 0.04,-0.2 0.03,-0.06 0.07,-0.11 0.12,-0.16 0.05,-0.04 0.12,-0.07 0.18,-0.08 0.07,-0.02 0.14,-0.01 0.2,0 12.44,2.97 25.19,4.47 37.98,4.46 3.07,0 6.14,0 9.22,-0.08 12.86,-0.35 26.42,-1 39.08,-3.45 0.32,-0.06 0.63,-0.12 0.9,-0.2 19.97,-3.79 38.97,-15.69 40.9,-45.83 0.07,-1.19 0.25,-12.43 0.25,-13.66 0.01,-4.19 1.37,-29.69 -0.19,-45.35zm-30.73 75.2l-21 0 0 -50.86c0,-10.7 -4.51,-16.16 -13.68,-16.16 -10.09,0 -15.14,6.46 -15.14,19.22l0 27.83 -20.87 0 0 -27.83c0,-12.76 -5.06,-19.22 -15.15,-19.22 -9.12,0 -13.68,5.46 -13.69,16.16l0 50.86 -20.97 0 0 -52.4c0,-10.71 2.76,-19.21 8.29,-25.52 5.7,-6.29 13.18,-9.52 22.46,-9.52 10.75,0 18.87,4.09 24.28,12.25l5.23 8.68 5.23 -8.68c5.41,-8.16 13.53,-12.25 24.26,-12.25 9.27,0 16.75,3.23 22.47,9.52 5.53,6.3 8.29,14.81 8.29,25.52l-0.01 52.4z"/>
 </g>
</svg>
