<?xml version="1.0" encoding="UTF-8"?>
<!DOCTYPE svg PUBLIC "-//W3C//DTD SVG 1.1//EN" "http://www.w3.org/Graphics/SVG/1.1/DTD/svg11.dtd">
<!-- Creator: CorelDRAW 2017 -->
<svg xmlns="http://www.w3.org/2000/svg" xml:space="preserve" width="2.54mm" height="2.54mm" version="1.1" style="shape-rendering:geometricPrecision; text-rendering:geometricPrecision; image-rendering:optimizeQuality; fill-rule:evenodd; clip-rule:evenodd"
viewBox="0 0 254 254"
 xmlns:xlink="http://www.w3.org/1999/xlink">
 <defs>
  <style type="text/css">
   <![CDATA[
    .fil0 {fill:#AAAAAA;fill-rule:nonzero}
   ]]>
  </style>
 </defs>
 <g id="レイヤ_x0020_1">
  <metadata id="CorelCorpID_0Corel-Layer"/>
  <g id="_2065951565840">
   <path class="fil0" d="M200.52 107.32c-5.44,0 -10.1,1.94 -13.98,5.82 -3.89,3.89 -5.83,8.55 -5.83,13.99l0 47.98c0,5.44 1.94,10.1 5.83,13.99 3.88,3.75 8.55,5.63 13.98,5.63 5.45,0 10.05,-1.88 13.8,-5.63 3.88,-3.89 5.83,-8.55 5.83,-13.99l0 -47.98c0,-5.44 -1.95,-10.1 -5.83,-13.99 -3.76,-3.88 -8.36,-5.82 -13.8,-5.82z"/>
   <path class="fil0" d="M200.33 64.19c-5.44,0 -10.1,1.95 -13.98,5.83 -3.76,3.75 -5.64,8.35 -5.64,13.79 0,5.44 1.88,10.1 5.64,13.99 3.88,3.75 8.54,5.63 13.98,5.63 5.44,0 10.1,-1.88 13.99,-5.63 3.88,-3.89 5.83,-8.55 5.83,-13.99 0,-5.44 -1.95,-10.04 -5.83,-13.79 -3.89,-3.88 -8.55,-5.83 -13.99,-5.83z"/>
   <path class="fil0" d="M56.6 64.19c-2.65,-0.01 -5.27,0.45 -7.76,1.36 -4.41,1.55 -8.04,4.34 -10.88,8.35 -2.72,3.89 -4.09,8.23 -4.09,13.02l0 85.08c0,6.22 2.21,11.6 6.61,16.13 4.53,4.4 9.91,6.6 16.12,6.6 6.35,0 11.73,-2.2 16.13,-6.6 4.54,-4.53 6.8,-9.91 6.8,-16.13l0 -15.47c0.05,-3.35 3.5,-2.47 5.24,0 3.27,5.66 10.91,10.49 18.26,10.49 7.36,0 14.77,-4.01 18.26,-10.49 1.33,-1.56 5.06,-4.22 5.45,0l0 15.47c0,6.22 2.2,11.6 6.6,16.13 4.53,4.4 9.91,6.6 16.12,6.6 6.35,0 11.72,-2.2 16.13,-6.6 4.53,-4.53 6.8,-9.91 6.8,-16.13l0 -85.08c0,-4.79 -1.43,-9.13 -4.27,-13.02 -2.73,-4.02 -6.29,-6.8 -10.69,-8.35 -2.59,-0.91 -5.18,-1.36 -7.77,-1.36 -6.99,0 -12.89,2.72 -17.68,8.16l-23.07 26.99c-0.51,0.39 -2.23,3.36 -5.88,3.36 -3.64,0 -5.16,-2.97 -5.68,-3.35l-23.26 -27c-4.66,-5.44 -10.49,-8.16 -17.49,-8.16z"/>
  </g>
 </g>
</svg>
