<?xml version="1.0" encoding="UTF-8"?>
<!DOCTYPE svg PUBLIC "-//W3C//DTD SVG 1.1//EN" "http://www.w3.org/Graphics/SVG/1.1/DTD/svg11.dtd">
<!-- Creator: CorelDRAW 2017 -->
<svg xmlns="http://www.w3.org/2000/svg" xml:space="preserve" width="2.54mm" height="2.54mm" version="1.1" style="shape-rendering:geometricPrecision; text-rendering:geometricPrecision; image-rendering:optimizeQuality; fill-rule:evenodd; clip-rule:evenodd"
viewBox="0 0 254 254"
 xmlns:xlink="http://www.w3.org/1999/xlink">
 <defs>
  <style type="text/css">
   <![CDATA[
    .fil1 {fill:#AAAAAA}
    .fil0 {fill:#AAAAAA;fill-rule:nonzero}
   ]]>
  </style>
 </defs>
 <g id="レイヤ_x0020_1">
  <metadata id="CorelCorpID_0Corel-Layer"/>
  <path class="fil0" d="M84.7 209.89c-2.61,0 -4.72,-2.12 -4.72,-4.72 0,-2.61 2.11,-4.72 4.72,-4.72l69.89 0c1.79,-0.67 3.07,-2.4 3.07,-4.43 0,-2.06 -1.33,-3.82 -3.18,-4.46l-109.09 0c-2.61,0 -4.72,-2.11 -4.72,-4.72 0,-2.61 2.11,-4.72 4.72,-4.72l58.13 0c1.86,-0.64 3.2,-2.4 3.2,-4.47 0,-2.12 -1.39,-3.91 -3.31,-4.51l-44.04 0c-2.61,0 -4.72,-2.11 -4.72,-4.72 0,-2.61 2.11,-4.72 4.72,-4.72l156.11 0c2.61,0 4.72,2.11 4.72,4.72 0,2.61 -2.11,4.72 -4.72,4.72l-92.31 0c-1.92,0.6 -3.31,2.39 -3.31,4.51 0,2.07 1.33,3.83 3.19,4.47l78.45 0c2.61,0 4.72,2.11 4.72,4.72 0,2.61 -2.11,4.72 -4.72,4.72l-27.53 0c-1.85,0.64 -3.18,2.4 -3.18,4.46 0,2.03 1.28,3.76 3.07,4.43l66.95 0c2.61,0 4.72,2.11 4.72,4.72 0,2.6 -2.11,4.72 -4.72,4.72l-156.11 0z"/>
  <path class="fil1" d="M177.16 89.83c19.9,0 36.03,16.13 36.03,36.03 0,13.75 -7.7,25.69 -19.02,31.77l-134.97 0c-5.28,0 -9.67,3.78 -10.61,8.78 -14.29,-7.75 -23.99,-22.89 -23.99,-40.29 0,-23.44 17.61,-42.77 40.32,-45.48 7.03,-21.57 27.29,-37.16 51.21,-37.16 27.47,0 50.13,20.57 53.42,47.16 2.45,-0.53 5,-0.81 7.61,-0.81z"/>
 </g>
</svg>
