<?xml version="1.0" encoding="UTF-8"?>
<!DOCTYPE svg PUBLIC "-//W3C//DTD SVG 1.1//EN" "http://www.w3.org/Graphics/SVG/1.1/DTD/svg11.dtd">
<!-- Creator: CorelDRAW 2017 -->
<svg xmlns="http://www.w3.org/2000/svg" xml:space="preserve" width="2.54mm" height="2.54mm" version="1.1" style="shape-rendering:geometricPrecision; text-rendering:geometricPrecision; image-rendering:optimizeQuality; fill-rule:evenodd; clip-rule:evenodd"
viewBox="0 0 254 254"
 xmlns:xlink="http://www.w3.org/1999/xlink">
 <defs>
  <style type="text/css">
   <![CDATA[
    .str0 {stroke:#36364A;stroke-width:25.39;stroke-miterlimit:22.9256}
    .fil0 {fill:none}
    .fil1 {fill:#36364A;fill-rule:nonzero}
   ]]>
  </style>
 </defs>
 <g id="レイヤ_x0020_1">
  <metadata id="CorelCorpID_0Corel-Layer"/>
  <path class="fil0 str0" d="M109.39 161.12l-50.07 0.25c-14.33,-7.77 -24.05,-22.96 -24.05,-40.41 0,-23.5 17.67,-42.88 40.42,-45.6 7.05,-21.63 27.38,-37.26 51.35,-37.26 27.55,0 50.28,20.64 53.57,47.28 2.46,-0.52 5.01,-0.8 7.64,-0.8 19.94,0 36.12,16.17 36.12,36.12 0,13.79 -7.72,25.77 -19.08,31.86l-18 8.65 -43.55 0.15"/>
  <g>
   <path class="fil1" d="M139.49 132.83l-0.31 103.42 -25.38 -0.08 0.31 -103.42 25.38 0.08zm-12.49 -66.87l70.34 70.73 -141.06 -0.42 70.72 -70.31z"/>
  </g>
 </g>
</svg>
