<?xml version="1.0" encoding="UTF-8"?>
<!DOCTYPE svg PUBLIC "-//W3C//DTD SVG 1.1//EN" "http://www.w3.org/Graphics/SVG/1.1/DTD/svg11.dtd">
<!-- Creator: CorelDRAW 2017 -->
<svg xmlns="http://www.w3.org/2000/svg" xml:space="preserve" width="2.54mm" height="2.54mm" version="1.1" style="shape-rendering:geometricPrecision; text-rendering:geometricPrecision; image-rendering:optimizeQuality; fill-rule:evenodd; clip-rule:evenodd"
viewBox="0 0 254 254"
 xmlns:xlink="http://www.w3.org/1999/xlink">
 <defs>
  <style type="text/css">
   <![CDATA[
    .fil0 {fill:#36364A;fill-rule:nonzero}
   ]]>
  </style>
 </defs>
 <g id="レイヤ_x0020_1">
  <metadata id="CorelCorpID_0Corel-Layer"/>
  <g>
   <path class="fil0" d="M125.3 237.06l0 -25.4 0 0 2.64 -0.04 2.62 -0.12 2.56 -0.21 2.58 -0.29 2.54 -0.36 2.48 -0.45 2.51 -0.53 2.45 -0.59 2.39 -0.67 2.41 -0.76 2.37 -0.81 2.32 -0.89 2.27 -0.95 2.25 -1.03 2.23 -1.1 2.18 -1.16 2.13 -1.22 2.09 -1.27 2.05 -1.35 2.03 -1.42 1.95 -1.46 1.91 -1.52 1.88 -1.59 1.83 -1.64 1.76 -1.68 1.71 -1.74 1.67 -1.8 1.61 -1.85 1.56 -1.89 1.49 -1.93 1.44 -1.99 1.38 -2.03 21.22 13.94 -1.82 2.67 -1.88 2.61 -1.97 2.55 -2.04 2.49 -2.11 2.41 -2.19 2.36 -2.25 2.28 -2.34 2.24 -2.39 2.14 -2.44 2.07 -2.53 2.02 -2.59 1.92 -2.63 1.84 -2.69 1.77 -2.77 1.71 -2.81 1.6 -2.86 1.52 -2.91 1.44 -2.97 1.35 -3.03 1.27 -3.08 1.17 -3.09 1.07 -3.13 0.98 -3.21 0.89 -3.23 0.79 -3.25 0.69 -3.32 0.59 -3.34 0.48 -3.36 0.39 -3.42 0.27 -3.42 0.16 -3.44 0.06 0 0zm-105.83 -105.83l25.4 0 0 0 0.1 4.15 0.31 4.09 0.51 4.03 0.71 3.96 0.89 3.87 1.09 3.82 1.26 3.74 1.44 3.65 1.61 3.55 1.78 3.47 1.93 3.36 2.1 3.27 2.24 3.16 2.39 3.04 2.52 2.92 2.68 2.79 2.79 2.68 2.92 2.52 3.04 2.39 3.16 2.24 3.27 2.1 3.36 1.93 3.47 1.78 3.55 1.61 3.65 1.44 3.74 1.26 3.82 1.09 3.87 0.89 3.96 0.71 4.03 0.51 4.09 0.31 4.15 0.1 0 25.4 -5.43 -0.14 -5.37 -0.41 -5.29 -0.67 -5.22 -0.93 -5.13 -1.19 -5.02 -1.43 -4.92 -1.66 -4.81 -1.9 -4.69 -2.11 -4.57 -2.34 -4.44 -2.55 -4.29 -2.76 -4.14 -2.94 -4 -3.15 -3.84 -3.32 -3.67 -3.5 -3.5 -3.67 -3.32 -3.84 -3.15 -4 -2.94 -4.14 -2.76 -4.29 -2.55 -4.44 -2.34 -4.57 -2.11 -4.69 -1.9 -4.81 -1.66 -4.92 -1.43 -5.02 -1.19 -5.13 -0.93 -5.22 -0.67 -5.29 -0.41 -5.37 -0.14 -5.43 0 0zm105.83 -105.83l0 25.4 0 0 -4.15 0.1 -4.09 0.31 -4.03 0.51 -3.96 0.71 -3.87 0.89 -3.82 1.09 -3.74 1.26 -3.65 1.44 -3.55 1.61 -3.47 1.78 -3.36 1.93 -3.27 2.1 -3.16 2.24 -3.04 2.39 -2.92 2.52 -2.79 2.68 -2.68 2.79 -2.52 2.92 -2.39 3.04 -2.24 3.16 -2.1 3.27 -1.93 3.36 -1.78 3.47 -1.61 3.55 -1.44 3.65 -1.26 3.74 -1.09 3.82 -0.89 3.87 -0.71 3.96 -0.51 4.03 -0.31 4.09 -0.1 4.15 -25.4 0 0.14 -5.43 0.41 -5.37 0.67 -5.29 0.93 -5.22 1.19 -5.13 1.43 -5.02 1.66 -4.92 1.9 -4.81 2.11 -4.69 2.34 -4.57 2.55 -4.44 2.76 -4.29 2.94 -4.14 3.15 -4 3.32 -3.84 3.5 -3.67 3.67 -3.5 3.84 -3.32 4 -3.15 4.14 -2.94 4.29 -2.76 4.44 -2.55 4.57 -2.34 4.69 -2.11 4.81 -1.9 4.92 -1.66 5.02 -1.43 5.13 -1.19 5.22 -0.93 5.29 -0.67 5.37 -0.41 5.43 -0.14 0 0zm71.25 27.57l-17.1 18.78 -1.36 -1.22 -1.37 -1.16 -1.41 -1.14 -1.45 -1.14 -1.44 -1.06 -1.48 -1.04 -1.54 -1.04 -1.53 -0.99 -1.52 -0.93 -1.57 -0.9 -1.65 -0.9 -1.6 -0.84 -1.64 -0.8 -1.69 -0.79 -1.66 -0.72 -1.68 -0.68 -1.76 -0.67 -1.73 -0.62 -1.76 -0.58 -1.78 -0.54 -1.78 -0.5 -1.79 -0.45 -1.86 -0.42 -1.86 -0.39 -1.82 -0.33 -1.87 -0.28 -1.92 -0.26 -1.88 -0.2 -1.9 -0.16 -1.95 -0.11 -1.95 -0.07 -1.95 -0.02 0 -25.4 2.57 0.04 2.53 0.09 2.51 0.15 2.54 0.2 2.52 0.28 2.46 0.32 2.47 0.38 2.48 0.45 2.4 0.49 2.38 0.54 2.41 0.61 2.38 0.66 2.34 0.72 2.32 0.76 2.29 0.82 2.24 0.85 2.26 0.92 2.24 0.98 2.17 1.01 2.18 1.06 2.14 1.12 2.07 1.14 2.09 1.2 2.08 1.27 2.01 1.29 1.96 1.32 1.96 1.38 1.92 1.44 1.87 1.44 1.85 1.5 1.83 1.56 1.78 1.58zm40.9 54.42l-99.72 4.69 95.04 -104.38 4.68 99.69z"/>
  </g>
 </g>
</svg>
