<?xml version="1.0" encoding="UTF-8"?>
<!DOCTYPE svg PUBLIC "-//W3C//DTD SVG 1.1//EN" "http://www.w3.org/Graphics/SVG/1.1/DTD/svg11.dtd">
<!-- Creator: CorelDRAW 2017 -->
<svg xmlns="http://www.w3.org/2000/svg" xml:space="preserve" width="2.54mm" height="2.54mm" version="1.1" style="shape-rendering:geometricPrecision; text-rendering:geometricPrecision; image-rendering:optimizeQuality; fill-rule:evenodd; clip-rule:evenodd"
viewBox="0 0 254 254"
 xmlns:xlink="http://www.w3.org/1999/xlink">
 <defs>
  <style type="text/css">
   <![CDATA[
    .str0 {stroke:#DDD9E8;stroke-width:16.93;stroke-miterlimit:22.9256}
    .fil0 {fill:none}
   ]]>
  </style>
 </defs>
 <g id="レイヤ_x0020_1">
  <metadata id="CorelCorpID_0Corel-Layer"/>
  <path class="fil0 str0" d="M127.19 16.93c4.19,0 8.33,0.25 12.39,0.7l7.64 35.12c8.64,2.3 16.67,6.05 23.85,10.97l32.33 -16.44c5.77,5.46 10.95,11.54 15.45,18.13l-21.55 28.93c4.61,9.63 7.29,20.36 7.55,31.69l32.23 16.65c-1.05,7.79 -2.89,15.31 -5.46,22.5l-36.38 0.12c-4.83,8.76 -11.31,16.49 -19.01,22.76l7.44 35.19c-6.99,4.15 -14.47,7.54 -22.34,10.09l-21.74 -28.83c-4.04,0.65 -8.18,0.99 -12.4,0.99 -4.22,0 -8.36,-0.34 -12.4,-0.99l-21.74 28.83c-7.87,-2.54 -15.35,-5.94 -22.34,-10.09l7.44 -35.19c-7.7,-6.27 -14.18,-14 -19.01,-22.76l-36.38 -0.12c-2.57,-7.18 -4.41,-14.72 -5.46,-22.5l32.23 -16.65c0.26,-11.33 2.94,-22.06 7.55,-31.69l-21.55 -28.93c4.5,-6.59 9.68,-12.67 15.45,-18.13l32.33 16.44c7.18,-4.92 15.22,-8.67 23.85,-10.97l7.64 -35.12c4.06,-0.45 8.2,-0.7 12.39,-0.7z"/>
  <circle class="fil0 str0" cx="127.19" cy="127.82" r="38.92"/>
 </g>
</svg>
