<?xml version="1.0" encoding="UTF-8"?>
<!DOCTYPE svg PUBLIC "-//W3C//DTD SVG 1.1//EN" "http://www.w3.org/Graphics/SVG/1.1/DTD/svg11.dtd">
<!-- Creator: CorelDRAW 2017 -->
<svg xmlns="http://www.w3.org/2000/svg" xml:space="preserve" width="2.54mm" height="2.54mm" version="1.1" style="shape-rendering:geometricPrecision; text-rendering:geometricPrecision; image-rendering:optimizeQuality; fill-rule:evenodd; clip-rule:evenodd"
viewBox="0 0 254 254"
 xmlns:xlink="http://www.w3.org/1999/xlink">
 <defs>
  <style type="text/css">
   <![CDATA[
    .str0 {stroke:#36364A;stroke-width:25.39;stroke-miterlimit:22.9256}
    .fil1 {fill:none}
    .fil0 {fill:#36364A}
   ]]>
  </style>
 </defs>
 <g id="レイヤ_x0020_1">
  <metadata id="CorelCorpID_0Corel-Layer"/>
  <path class="fil0" d="M128.18 16.93c60.45,0 109.45,49 109.45,109.45 0,60.45 -49,109.45 -109.45,109.45 -60.45,0 -109.45,-49 -109.45,-109.45 0,-60.45 49,-109.45 109.45,-109.45zm56.55 49.78c14.93,0 27.03,12.09 27.03,27.02 0,14.92 -12.1,27.02 -27.03,27.02 -14.92,0 -27.02,-12.1 -27.02,-27.02 0,-14.93 12.1,-27.02 27.02,-27.02zm-113.1 0c14.92,0 27.02,12.09 27.02,27.02 0,14.92 -12.1,27.02 -27.02,27.02 -14.93,0 -27.03,-12.1 -27.03,-27.02 0,-14.93 12.1,-27.02 27.03,-27.02zm56.55 -32.66c14.92,0 27.02,12.11 27.02,27.03 0,14.92 -12.1,27.02 -27.02,27.02 -14.92,0 -27.02,-12.1 -27.02,-27.02 0,-14.92 12.1,-27.03 27.02,-27.03zm56.55 97.96c14.93,0 27.03,12.1 27.03,27.02 0,14.93 -12.1,27.02 -27.03,27.02 -14.92,0 -27.02,-12.09 -27.02,-27.02 0,-14.92 12.1,-27.02 27.02,-27.02zm-56.55 32.65c14.92,0 27.02,12.1 27.02,27.02 0,14.93 -12.1,27.03 -27.02,27.03 -14.92,0 -27.02,-12.1 -27.02,-27.03 0,-14.92 12.1,-27.02 27.02,-27.02zm-56.55 -32.65c14.92,0 27.02,12.1 27.02,27.02 0,14.93 -12.1,27.02 -27.02,27.02 -14.93,0 -27.03,-12.09 -27.03,-27.02 0,-14.92 12.1,-27.02 27.03,-27.02zm56.55 -21.94c9.01,0 16.31,7.3 16.31,16.31 0,9.01 -7.3,16.31 -16.31,16.31 -9.01,0 -16.31,-7.3 -16.31,-16.31 0,-9.01 7.3,-16.31 16.31,-16.31z"/>
  <line class="fil1 str0" x1="249.77" y1="224.34" x2="144.99" y2= "224.34" />
 </g>
</svg>
