<?xml version="1.0" encoding="UTF-8"?>
<!DOCTYPE svg PUBLIC "-//W3C//DTD SVG 1.1//EN" "http://www.w3.org/Graphics/SVG/1.1/DTD/svg11.dtd">
<!-- Creator: CorelDRAW 2017 -->
<svg xmlns="http://www.w3.org/2000/svg" xml:space="preserve" width="2.54mm" height="2.54mm" version="1.1" style="shape-rendering:geometricPrecision; text-rendering:geometricPrecision; image-rendering:optimizeQuality; fill-rule:evenodd; clip-rule:evenodd"
viewBox="0 0 254 254"
 xmlns:xlink="http://www.w3.org/1999/xlink">
 <defs>
  <style type="text/css">
   <![CDATA[
    .fil0 {fill:#36364A}
   ]]>
  </style>
 </defs>
 <g id="レイヤ_x0020_1">
  <metadata id="CorelCorpID_0Corel-Layer"/>
  <path class="fil0" d="M245.52 211.99l-237.51 0 0 -169.66 237.51 0c0,56.55 0,113.11 0,169.66zm-16.95 -22.62l-22.64 0 0 -22.61 22.64 0c0,7.54 0,15.07 0,22.61zm0 -33.93l-22.64 0 0 -22.62 22.64 0c0,7.54 0,15.08 0,22.62zm0 -33.93l-22.64 0 0 -22.62 22.64 0c0,7.54 0,15.08 0,22.62zm0 -33.93l-22.64 0 0 -22.62 22.64 0c0,7.54 0,15.08 0,22.62zm-180.97 101.79l-22.63 0 0 -22.61 22.63 0c0,7.54 0,15.07 0,22.61zm0 -33.93l-22.63 0 0 -22.62 22.63 0c0,7.54 0,15.08 0,22.62zm0 -33.93l-22.63 0 0 -22.62 22.63 0c0,7.54 0,15.08 0,22.62zm0 -33.93l-22.63 0 0 -22.62 22.63 0c0,7.54 0,15.08 0,22.62zm141.38 101.8l-124.43 0 0 -124.42 124.43 0c0,41.47 0,82.95 0,124.42z"/>
 </g>
</svg>
