<?xml version="1.0" encoding="UTF-8"?>
<!DOCTYPE svg PUBLIC "-//W3C//DTD SVG 1.1//EN" "http://www.w3.org/Graphics/SVG/1.1/DTD/svg11.dtd">
<!-- Creator: CorelDRAW 2017 -->
<svg xmlns="http://www.w3.org/2000/svg" xml:space="preserve" width="2.54mm" height="2.54mm" version="1.1" style="shape-rendering:geometricPrecision; text-rendering:geometricPrecision; image-rendering:optimizeQuality; fill-rule:evenodd; clip-rule:evenodd"
viewBox="0 0 254 254"
 xmlns:xlink="http://www.w3.org/1999/xlink">
 <defs>
  <style type="text/css">
   <![CDATA[
    .fil0 {fill:#36364A;fill-rule:nonzero}
   ]]>
  </style>
 </defs>
 <g id="レイヤ_x0020_1">
  <metadata id="CorelCorpID_0Corel-Layer"/>
  <g>
   <path class="fil0" d="M156.52 241.3l-57.71 0 0 -25.4 57.71 0 0 0 0 25.4zm40.11 -43.53l17.86 18.04 0 0 -1.49 1.44 -1.49 1.39 -1.55 1.39 -1.57 1.34 -1.57 1.29 -1.63 1.27 -1.62 1.21 -1.66 1.2 -1.68 1.13 -1.69 1.11 -1.74 1.07 -1.73 1.02 -1.78 0.99 -1.79 0.95 -1.78 0.88 -1.83 0.86 -1.86 0.81 -1.84 0.76 -1.91 0.73 -1.9 0.66 -1.89 0.61 -1.95 0.58 -1.96 0.52 -1.94 0.46 -1.99 0.43 -1.98 0.36 -1.99 0.31 -2.01 0.25 -2.05 0.21 -2.01 0.13 -2.02 0.1 -2.07 0.03 0 -25.4 1.31 -0.01 1.34 -0.06 1.33 -0.09 1.29 -0.13 1.33 -0.17 1.31 -0.21 1.32 -0.24 1.31 -0.27 1.32 -0.32 1.3 -0.34 1.27 -0.38 1.33 -0.43 1.3 -0.46 1.25 -0.47 1.3 -0.54 1.28 -0.55 1.25 -0.6 1.3 -0.64 1.25 -0.65 1.24 -0.69 1.25 -0.74 1.22 -0.75 1.23 -0.81 1.22 -0.83 1.2 -0.86 1.2 -0.89 1.17 -0.93 1.17 -0.95 1.15 -0.98 1.13 -1.01 1.13 -1.05 1.11 -1.08 0 0zm-40.98 -108.87l0 -25.4 0 0 6.92 0.29 6.74 0.85 6.51 1.38 6.3 1.9 6.04 2.38 5.74 2.82 5.47 3.24 5.16 3.65 4.84 3.98 4.52 4.32 4.19 4.61 3.85 4.9 3.5 5.12 3.15 5.35 2.8 5.56 2.43 5.74 2.04 5.86 1.68 6.01 1.27 6.12 0.88 6.2 0.47 6.28 0.03 6.31 -0.41 6.34 -0.85 6.31 -1.32 6.3 -1.8 6.22 -2.28 6.12 -2.77 6.02 -3.3 5.86 -3.81 5.66 -4.32 5.44 -4.83 5.17 -17.86 -18.04 3.47 -3.71 3.06 -3.86 2.67 -3.98 2.3 -4.1 1.95 -4.22 1.62 -4.32 1.26 -4.4 0.94 -4.46 0.61 -4.53 0.29 -4.56 -0.03 -4.57 -0.33 -4.56 -0.64 -4.54 -0.95 -4.5 -1.22 -4.41 -1.52 -4.34 -1.77 -4.2 -2.04 -4.06 -2.31 -3.89 -2.54 -3.74 -2.75 -3.5 -2.99 -3.29 -3.18 -3.04 -3.4 -2.8 -3.56 -2.51 -3.75 -2.22 -3.94 -1.94 -4.08 -1.62 -4.26 -1.28 -4.45 -0.94 -4.62 -0.59 -4.82 -0.19 0 0zm-76.07 -25.4l76.07 0 0 25.4 -76.07 0 0 -25.4zm-66.88 12.7l70.58 -70.61 0 141.17 -70.58 -70.56z"/>
  </g>
 </g>
</svg>
